<mxfile host="app.diagrams.net" modified="2023-10-14T00:15:07.299Z" agent="Mozilla/5.0 (Macintosh; Intel Mac OS X 10_15_7) AppleWebKit/537.36 (KHTML, like Gecko) Chrome/117.0.0.0 Safari/537.36" etag="DvIDGPWNgcu8iuOIzejP" version="21.3.2" type="github">
  <diagram name="Page-1" id="wFBNtplqSjw5EEAs655P">
    <mxGraphModel dx="2389" dy="1493" grid="0" gridSize="10" guides="1" tooltips="1" connect="1" arrows="1" fold="1" page="1" pageScale="1" pageWidth="850" pageHeight="1100" math="0" shadow="0">
      <root>
        <mxCell id="0" />
        <mxCell id="1" parent="0" />
        <mxCell id="lSNRgi6c4_6IA0ftgFg9-79" value="" style="rounded=1;whiteSpace=wrap;html=1;fillColor=none;strokeColor=#b85450;fillStyle=solid;strokeWidth=2;arcSize=8;gradientColor=none;" vertex="1" parent="1">
          <mxGeometry x="89" y="252" width="401" height="361" as="geometry" />
        </mxCell>
        <mxCell id="lSNRgi6c4_6IA0ftgFg9-50" value="" style="rounded=1;whiteSpace=wrap;html=1;fillColor=none;strokeColor=#6c8ebf;fillStyle=dots;strokeWidth=2;arcSize=11;" vertex="1" parent="1">
          <mxGeometry x="500" y="253" width="250" height="570" as="geometry" />
        </mxCell>
        <mxCell id="lSNRgi6c4_6IA0ftgFg9-39" style="edgeStyle=orthogonalEdgeStyle;orthogonalLoop=1;jettySize=auto;html=1;exitX=1;exitY=0.25;exitDx=0;exitDy=0;entryX=-0.003;entryY=0.428;entryDx=0;entryDy=0;entryPerimeter=0;strokeWidth=2;rounded=1;" edge="1" parent="1" source="lSNRgi6c4_6IA0ftgFg9-28" target="lSNRgi6c4_6IA0ftgFg9-36">
          <mxGeometry relative="1" as="geometry">
            <mxPoint x="309" y="332" as="targetPoint" />
            <Array as="points">
              <mxPoint x="230" y="332" />
              <mxPoint x="269" y="332" />
              <mxPoint x="269" y="392" />
            </Array>
          </mxGeometry>
        </mxCell>
        <mxCell id="lSNRgi6c4_6IA0ftgFg9-73" style="edgeStyle=orthogonalEdgeStyle;rounded=0;orthogonalLoop=1;jettySize=auto;html=1;entryX=-0.007;entryY=0.576;entryDx=0;entryDy=0;entryPerimeter=0;strokeWidth=2;" edge="1" parent="1" source="lSNRgi6c4_6IA0ftgFg9-28" target="lSNRgi6c4_6IA0ftgFg9-65">
          <mxGeometry relative="1" as="geometry">
            <Array as="points">
              <mxPoint x="288" y="312" />
            </Array>
          </mxGeometry>
        </mxCell>
        <mxCell id="lSNRgi6c4_6IA0ftgFg9-77" style="edgeStyle=orthogonalEdgeStyle;orthogonalLoop=1;jettySize=auto;html=1;entryX=1.001;entryY=0.602;entryDx=0;entryDy=0;exitX=1.004;exitY=0.667;exitDx=0;exitDy=0;strokeWidth=2;entryPerimeter=0;rounded=1;exitPerimeter=0;" edge="1" parent="1" source="lSNRgi6c4_6IA0ftgFg9-28" target="lSNRgi6c4_6IA0ftgFg9-62">
          <mxGeometry relative="1" as="geometry">
            <Array as="points">
              <mxPoint x="249" y="352" />
              <mxPoint x="249" y="563" />
            </Array>
          </mxGeometry>
        </mxCell>
        <mxCell id="lSNRgi6c4_6IA0ftgFg9-78" style="edgeStyle=orthogonalEdgeStyle;rounded=0;orthogonalLoop=1;jettySize=auto;html=1;entryX=0.5;entryY=0;entryDx=0;entryDy=0;strokeWidth=2;" edge="1" parent="1" source="lSNRgi6c4_6IA0ftgFg9-28" target="lSNRgi6c4_6IA0ftgFg9-74">
          <mxGeometry relative="1" as="geometry" />
        </mxCell>
        <mxCell id="lSNRgi6c4_6IA0ftgFg9-28" value="" style="rounded=0;whiteSpace=wrap;html=1;strokeWidth=2;" vertex="1" parent="1">
          <mxGeometry x="110" y="272" width="120" height="120" as="geometry" />
        </mxCell>
        <mxCell id="lSNRgi6c4_6IA0ftgFg9-10" value="DUCKWEB COURSES&lt;br&gt;(WEB)" style="shape=process;whiteSpace=wrap;html=1;backgroundOutline=1;strokeWidth=2;" vertex="1" parent="1">
          <mxGeometry x="600" y="553" width="120" height="60" as="geometry" />
        </mxCell>
        <mxCell id="lSNRgi6c4_6IA0ftgFg9-13" value="&lt;br&gt;WEB &lt;br&gt;SCRAPER" style="shape=module;align=left;spacingLeft=20;align=center;verticalAlign=top;whiteSpace=wrap;html=1;strokeWidth=2;" vertex="1" parent="1">
          <mxGeometry x="590" y="633" width="130" height="70" as="geometry" />
        </mxCell>
        <mxCell id="lSNRgi6c4_6IA0ftgFg9-20" value="USERS" style="sketch=0;outlineConnect=0;gradientColor=none;fontColor=#545B64;strokeColor=none;fillColor=#000000;dashed=0;verticalLabelPosition=bottom;verticalAlign=top;align=center;html=1;fontSize=12;fontStyle=0;aspect=fixed;shape=mxgraph.aws4.illustration_users;pointerEvents=1;strokeWidth=2;fillStyle=solid;" vertex="1" parent="1">
          <mxGeometry x="129.5" y="282" width="80" height="80" as="geometry" />
        </mxCell>
        <mxCell id="lSNRgi6c4_6IA0ftgFg9-21" value="&lt;br&gt;DATA&lt;br&gt;TRANSLATION&lt;br&gt;LAYER" style="shape=module;align=left;spacingLeft=20;align=center;verticalAlign=top;whiteSpace=wrap;html=1;jettyWidth=20;jettyHeight=8;strokeWidth=2;" vertex="1" parent="1">
          <mxGeometry x="590" y="723" width="130" height="80" as="geometry" />
        </mxCell>
        <mxCell id="lSNRgi6c4_6IA0ftgFg9-22" value="" style="endArrow=classic;html=1;exitX=0;exitY=0;exitDx=0;exitDy=35;exitPerimeter=0;entryX=0;entryY=0;entryDx=0;entryDy=12;entryPerimeter=0;strokeWidth=2;rounded=1;strokeColor=#000000;" edge="1" parent="1" source="lSNRgi6c4_6IA0ftgFg9-13" target="lSNRgi6c4_6IA0ftgFg9-21">
          <mxGeometry width="50" height="50" relative="1" as="geometry">
            <mxPoint x="580" y="670" as="sourcePoint" />
            <mxPoint x="590" y="737" as="targetPoint" />
            <Array as="points">
              <mxPoint x="550" y="668" />
              <mxPoint x="520" y="668" />
              <mxPoint x="520" y="735" />
            </Array>
          </mxGeometry>
        </mxCell>
        <mxCell id="lSNRgi6c4_6IA0ftgFg9-25" value="" style="endArrow=classic;html=1;exitX=0;exitY=0.5;exitDx=0;exitDy=0;entryX=0;entryY=0;entryDx=0;entryDy=15;entryPerimeter=0;strokeWidth=2;rounded=1;strokeColor=#000000;" edge="1" parent="1" source="lSNRgi6c4_6IA0ftgFg9-10" target="lSNRgi6c4_6IA0ftgFg9-13">
          <mxGeometry width="50" height="50" relative="1" as="geometry">
            <mxPoint x="610" y="493" as="sourcePoint" />
            <mxPoint x="580" y="548" as="targetPoint" />
            <Array as="points">
              <mxPoint x="520" y="583" />
              <mxPoint x="520" y="648" />
            </Array>
          </mxGeometry>
        </mxCell>
        <mxCell id="lSNRgi6c4_6IA0ftgFg9-51" value="" style="rounded=1;whiteSpace=wrap;html=1;fillColor=none;strokeColor=#d79b00;fillStyle=dashed;strokeWidth=2;" vertex="1" parent="1">
          <mxGeometry x="90" y="663" width="400" height="160" as="geometry" />
        </mxCell>
        <mxCell id="lSNRgi6c4_6IA0ftgFg9-71" style="edgeStyle=orthogonalEdgeStyle;orthogonalLoop=1;jettySize=auto;html=1;exitX=0;exitY=0.5;exitDx=0;exitDy=0;exitPerimeter=0;strokeWidth=2;entryX=0;entryY=0.59;entryDx=0;entryDy=0;entryPerimeter=0;rounded=1;strokeColor=#FF8000;" edge="1" parent="1" source="lSNRgi6c4_6IA0ftgFg9-5" target="lSNRgi6c4_6IA0ftgFg9-62">
          <mxGeometry relative="1" as="geometry">
            <mxPoint x="99" y="603" as="targetPoint" />
            <Array as="points">
              <mxPoint x="69" y="743" />
              <mxPoint x="69" y="563" />
              <mxPoint x="110" y="563" />
            </Array>
          </mxGeometry>
        </mxCell>
        <mxCell id="lSNRgi6c4_6IA0ftgFg9-80" style="edgeStyle=orthogonalEdgeStyle;orthogonalLoop=1;jettySize=auto;html=1;entryX=0;entryY=0.5;entryDx=0;entryDy=0;strokeWidth=2;rounded=1;strokeColor=#FF8000;" edge="1" parent="1" source="lSNRgi6c4_6IA0ftgFg9-5" target="lSNRgi6c4_6IA0ftgFg9-74">
          <mxGeometry relative="1" as="geometry">
            <Array as="points">
              <mxPoint x="69" y="743" />
              <mxPoint x="69" y="488" />
            </Array>
          </mxGeometry>
        </mxCell>
        <mxCell id="lSNRgi6c4_6IA0ftgFg9-5" value="&lt;br&gt;USER &lt;br&gt;DATABASE" style="strokeWidth=2;html=1;shape=mxgraph.flowchart.database;whiteSpace=wrap;" vertex="1" parent="1">
          <mxGeometry x="139" y="688" width="130" height="110" as="geometry" />
        </mxCell>
        <mxCell id="lSNRgi6c4_6IA0ftgFg9-54" style="edgeStyle=orthogonalEdgeStyle;orthogonalLoop=1;jettySize=auto;html=1;exitX=1;exitY=0.5;exitDx=0;exitDy=0;exitPerimeter=0;strokeWidth=2;rounded=1;strokeColor=#FF8000;" edge="1" parent="1" source="lSNRgi6c4_6IA0ftgFg9-5">
          <mxGeometry relative="1" as="geometry">
            <mxPoint x="364" y="683" as="sourcePoint" />
            <mxPoint x="288" y="413" as="targetPoint" />
            <Array as="points">
              <mxPoint x="280" y="743" />
              <mxPoint x="280" y="678" />
              <mxPoint x="350" y="678" />
              <mxPoint x="350" y="573" />
              <mxPoint x="270" y="573" />
              <mxPoint x="270" y="413" />
            </Array>
          </mxGeometry>
        </mxCell>
        <mxCell id="lSNRgi6c4_6IA0ftgFg9-61" style="edgeStyle=orthogonalEdgeStyle;orthogonalLoop=1;jettySize=auto;html=1;strokeWidth=2;rounded=1;entryX=0.006;entryY=0.883;entryDx=0;entryDy=0;entryPerimeter=0;strokeColor=#FF8000;" edge="1" parent="1" source="lSNRgi6c4_6IA0ftgFg9-47" target="lSNRgi6c4_6IA0ftgFg9-43">
          <mxGeometry relative="1" as="geometry">
            <mxPoint x="600" y="523" as="targetPoint" />
            <Array as="points">
              <mxPoint x="370" y="573" />
              <mxPoint x="470" y="573" />
              <mxPoint x="470" y="503" />
              <mxPoint x="601" y="503" />
            </Array>
          </mxGeometry>
        </mxCell>
        <mxCell id="lSNRgi6c4_6IA0ftgFg9-47" value="&lt;br&gt;CLASS DATA&lt;br&gt;DATABASE" style="strokeWidth=2;html=1;shape=mxgraph.flowchart.database;whiteSpace=wrap;" vertex="1" parent="1">
          <mxGeometry x="299" y="688" width="130" height="110" as="geometry" />
        </mxCell>
        <mxCell id="lSNRgi6c4_6IA0ftgFg9-60" style="edgeStyle=orthogonalEdgeStyle;rounded=0;orthogonalLoop=1;jettySize=auto;html=1;strokeWidth=2;exitX=1.002;exitY=0.427;exitDx=0;exitDy=0;exitPerimeter=0;entryX=0.005;entryY=0.807;entryDx=0;entryDy=0;entryPerimeter=0;strokeColor=#CC0000;" edge="1" parent="1" source="lSNRgi6c4_6IA0ftgFg9-30" target="lSNRgi6c4_6IA0ftgFg9-43">
          <mxGeometry relative="1" as="geometry">
            <mxPoint x="600" y="503" as="targetPoint" />
            <Array as="points">
              <mxPoint x="434" y="483" />
            </Array>
          </mxGeometry>
        </mxCell>
        <mxCell id="lSNRgi6c4_6IA0ftgFg9-30" value="CLASS &lt;br&gt;SELECTOR MODULE" style="rounded=0;whiteSpace=wrap;html=1;align=center;strokeWidth=2;" vertex="1" parent="1">
          <mxGeometry x="289" y="452" width="145" height="70" as="geometry" />
        </mxCell>
        <mxCell id="lSNRgi6c4_6IA0ftgFg9-59" style="edgeStyle=orthogonalEdgeStyle;rounded=0;orthogonalLoop=1;jettySize=auto;html=1;entryX=0.5;entryY=0;entryDx=0;entryDy=0;strokeWidth=2;" edge="1" parent="1" source="lSNRgi6c4_6IA0ftgFg9-36" target="lSNRgi6c4_6IA0ftgFg9-30">
          <mxGeometry relative="1" as="geometry" />
        </mxCell>
        <mxCell id="lSNRgi6c4_6IA0ftgFg9-36" value="AUTHENTICATOR MODULE" style="rounded=0;whiteSpace=wrap;html=1;align=center;strokeWidth=2;" vertex="1" parent="1">
          <mxGeometry x="289" y="362" width="145" height="70" as="geometry" />
        </mxCell>
        <mxCell id="lSNRgi6c4_6IA0ftgFg9-62" value="MAP VISUALIZER&lt;br&gt;MODULE" style="rounded=0;whiteSpace=wrap;html=1;align=center;strokeWidth=2;" vertex="1" parent="1">
          <mxGeometry x="110" y="533" width="119" height="50" as="geometry" />
        </mxCell>
        <mxCell id="lSNRgi6c4_6IA0ftgFg9-65" value="FILTER SELECTION MODULE" style="rounded=0;whiteSpace=wrap;html=1;align=center;strokeWidth=2;" vertex="1" parent="1">
          <mxGeometry x="289" y="272" width="145" height="70" as="geometry" />
        </mxCell>
        <mxCell id="lSNRgi6c4_6IA0ftgFg9-67" style="edgeStyle=orthogonalEdgeStyle;orthogonalLoop=1;jettySize=auto;html=1;entryX=1.003;entryY=0.582;entryDx=0;entryDy=0;strokeWidth=2;rounded=1;exitX=0.004;exitY=0.153;exitDx=0;exitDy=0;exitPerimeter=0;entryPerimeter=0;strokeColor=#0066CC;" edge="1" parent="1" source="lSNRgi6c4_6IA0ftgFg9-43" target="lSNRgi6c4_6IA0ftgFg9-65">
          <mxGeometry relative="1" as="geometry">
            <mxPoint x="520" y="373" as="targetPoint" />
            <mxPoint x="600" y="483" as="sourcePoint" />
            <Array as="points">
              <mxPoint x="530" y="313" />
              <mxPoint x="530" y="313" />
            </Array>
          </mxGeometry>
        </mxCell>
        <mxCell id="lSNRgi6c4_6IA0ftgFg9-68" style="edgeStyle=orthogonalEdgeStyle;rounded=1;orthogonalLoop=1;jettySize=auto;html=1;entryX=0.5;entryY=1;entryDx=0;entryDy=0;entryPerimeter=0;strokeWidth=2;fillColor=#cce5ff;strokeColor=#0066CC;" edge="1" parent="1" source="lSNRgi6c4_6IA0ftgFg9-43" target="lSNRgi6c4_6IA0ftgFg9-5">
          <mxGeometry relative="1" as="geometry">
            <mxPoint x="780" y="753" as="targetPoint" />
            <Array as="points">
              <mxPoint x="770" y="403" />
              <mxPoint x="770" y="843" />
              <mxPoint x="204" y="843" />
            </Array>
          </mxGeometry>
        </mxCell>
        <mxCell id="lSNRgi6c4_6IA0ftgFg9-74" value="MATRIX DISPLAY MODULE" style="rounded=0;whiteSpace=wrap;html=1;align=center;strokeWidth=2;" vertex="1" parent="1">
          <mxGeometry x="110" y="463" width="120" height="50" as="geometry" />
        </mxCell>
        <mxCell id="lSNRgi6c4_6IA0ftgFg9-81" value="Dashboard Module" style="text;strokeColor=none;fillColor=none;html=1;fontSize=24;fontStyle=1;verticalAlign=middle;align=center;fontColor=#CC0000;" vertex="1" parent="1">
          <mxGeometry x="165" y="219" width="100" height="40" as="geometry" />
        </mxCell>
        <mxCell id="lSNRgi6c4_6IA0ftgFg9-82" value="Database Module" style="text;strokeColor=none;fillColor=none;html=1;fontSize=24;fontStyle=1;verticalAlign=middle;align=center;fontColor=#FF8000;" vertex="1" parent="1">
          <mxGeometry x="156" y="629" width="100" height="40" as="geometry" />
        </mxCell>
        <mxCell id="lSNRgi6c4_6IA0ftgFg9-43" value="SCHEDULING MODULE" style="rounded=0;whiteSpace=wrap;html=1;align=center;strokeWidth=2;" vertex="1" parent="1">
          <mxGeometry x="600" y="273" width="120" height="260" as="geometry" />
        </mxCell>
        <mxCell id="lSNRgi6c4_6IA0ftgFg9-84" value="Backend Module" style="text;strokeColor=none;fillColor=none;html=1;fontSize=24;fontStyle=1;verticalAlign=middle;align=center;fontColor=#0066CC;" vertex="1" parent="1">
          <mxGeometry x="560" y="219" width="100" height="40" as="geometry" />
        </mxCell>
        <mxCell id="lSNRgi6c4_6IA0ftgFg9-85" style="edgeStyle=orthogonalEdgeStyle;rounded=0;orthogonalLoop=1;jettySize=auto;html=1;exitX=0;exitY=0;exitDx=0;exitDy=28;exitPerimeter=0;entryX=1.005;entryY=0.57;entryDx=0;entryDy=0;entryPerimeter=0;strokeWidth=2;strokeColor=#0066CC;" edge="1" parent="1" source="lSNRgi6c4_6IA0ftgFg9-21" target="lSNRgi6c4_6IA0ftgFg9-47">
          <mxGeometry relative="1" as="geometry" />
        </mxCell>
      </root>
    </mxGraphModel>
  </diagram>
</mxfile>
